<?xml version="1.0" encoding="UTF-8" standalone="no"?>
<svg
   version="1.1"
   id="Congelado"
   x="0px"
   y="0px"
   width="24px"
   height="24px"
   viewBox="0 0 24 24"
   enable-background="new 0 0 24 24"
   xml:space="preserve"
   sodipodi:docname="gemini-svg (1).svg"
   inkscape:version="1.4.3 (0d15f75042, 2025-12-25)"
   xmlns:inkscape="http://www.inkscape.org/namespaces/inkscape"
   xmlns:sodipodi="http://sodipodi.sourceforge.net/DTD/sodipodi-0.dtd"
   xmlns="http://www.w3.org/2000/svg"
   xmlns:svg="http://www.w3.org/2000/svg"><defs
   id="defs4" /><sodipodi:namedview
   id="namedview4"
   pagecolor="#ffffff"
   bordercolor="#000000"
   borderopacity="0.25"
   inkscape:showpageshadow="2"
   inkscape:pageopacity="0.0"
   inkscape:pagecheckerboard="0"
   inkscape:deskcolor="#d1d1d1"
   inkscape:zoom="16.791667"
   inkscape:cx="4.7940447"
   inkscape:cy="9.2307692"
   inkscape:window-width="1920"
   inkscape:window-height="1008"
   inkscape:window-x="0"
   inkscape:window-y="0"
   inkscape:window-maximized="1"
   inkscape:current-layer="Congelado" />
<g
   id="g2"
   transform="translate(0,-2)">
    <path
   fill="#3498db"
   d="M 12,2 C 9.2,2 7,4.2 7,7 v 4 H 17 V 7 C 17,4.2 14.8,2 12,2 Z M 9,7 c 0,-1.7 1.3,-3 3,-3 1.7,0 3,1.3 3,3 v 4 H 9 Z"
   id="path1" />
    <path
   fill="#3498db"
   d="M 16,11 H 8 c -2.2,0 -4,1.8 -4,4 v 7 c 0,2.2 1.8,4 4,4 h 8 c 2.2,0 4,-1.8 4,-4 v -7 c 0,-2.2 -1.8,-4 -4,-4 z"
   id="path2" />
</g>

<g
   id="g4">
    <circle
   fill="#FFFFFF"
   cx="12"
   cy="17"
   r="2"
   id="circle3" />
    <path
   fill="#FFFFFF"
   d="M12,20c-0.6,0-1-0.4-1-1v-2c0-0.6,0.4-1,1-1s1,0.4,1,1v2C13,19.6,12.6,20,12,20z"
   id="path4" />
</g>
</svg>
