<?xml version="1.0" encoding="UTF-8" standalone="no"?>
<!-- Generator: Adobe Illustrator 16.0.0, SVG Export Plug-In . SVG Version: 6.00 Build 0)  -->

<svg
   version="1.1"
   id="Capa_1"
   x="0px"
   y="0px"
   width="485.213px"
   height="485.212px"
   viewBox="0 0 485.213 485.212"
   style="enable-background:new 0 0 485.213 485.212;"
   xml:space="preserve"
   sodipodi:docname="icon.svg"
   inkscape:version="1.4.3 (0d15f75042, 2025-12-25)"
   xmlns:inkscape="http://www.inkscape.org/namespaces/inkscape"
   xmlns:sodipodi="http://sodipodi.sourceforge.net/DTD/sodipodi-0.dtd"
   xmlns="http://www.w3.org/2000/svg"
   xmlns:svg="http://www.w3.org/2000/svg"><defs
   id="defs16" /><sodipodi:namedview
   id="namedview16"
   pagecolor="#ffffff"
   bordercolor="#000000"
   borderopacity="0.25"
   inkscape:showpageshadow="2"
   inkscape:pageopacity="0.0"
   inkscape:pagecheckerboard="0"
   inkscape:deskcolor="#d1d1d1"
   showgrid="false"
   inkscape:zoom="1.6611295"
   inkscape:cx="242.90701"
   inkscape:cy="242.60601"
   inkscape:window-width="1920"
   inkscape:window-height="1008"
   inkscape:window-x="0"
   inkscape:window-y="0"
   inkscape:window-maximized="1"
   inkscape:current-layer="Capa_1" />
<g
   id="g1"
   style="fill:#008000;stroke:#ffffff">
	<path
   d="M121.304,163.711v-42.407C121.304,54.434,175.723,0,242.606,0c66.902,0,121.302,54.434,121.302,121.304v42.407   c-19.457-8.884-39.772-15.338-60.653-19.662v-22.745c0-33.465-27.153-60.653-60.648-60.653c-33.496,0-60.651,27.188-60.651,60.653   v22.745C161.091,148.374,140.761,154.828,121.304,163.711z M394.235,265.823c0,105.845-64.588,194.011-151.629,219.39   c-87.039-25.379-151.629-113.545-151.629-219.39c0-26.649,4.116-52.122,11.624-75.812c86.329-51.175,193.667-51.175,279.995,0   C390.091,213.701,394.235,239.173,394.235,265.823z M261.62,296.033c6.753-5.567,11.312-13.684,11.312-23.103   c0-16.764-13.562-30.324-30.326-30.324c-16.762,0-30.324,13.561-30.324,30.324c0,9.419,4.56,17.535,11.311,23.103l-11.311,67.873   h60.65L261.62,296.033z"
   id="path1"
   style="fill:#008000;stroke:#ffffff" />
</g>
<g
   id="g2">
</g>
<g
   id="g3">
</g>
<g
   id="g4"
   style="fill:#e6e6e6">
</g>
<g
   id="g5">
</g>
<g
   id="g6">
</g>
<g
   id="g7">
</g>
<g
   id="g8">
</g>
<g
   id="g9">
</g>
<g
   id="g10">
</g>
<g
   id="g11">
</g>
<g
   id="g12">
</g>
<g
   id="g13">
</g>
<g
   id="g14">
</g>
<g
   id="g15">
</g>
<g
   id="g16">
</g>
</svg>
