<?xml version="1.0" encoding="UTF-8" standalone="no"?>
<svg
   version="1.1"
   id="Descongelado"
   x="0px"
   y="0px"
   width="24px"
   height="24px"
   viewBox="0 0 24 24"
   enable-background="new 0 0 24 24"
   xml:space="preserve"
   sodipodi:docname="gemini-svg (2).svg"
   inkscape:version="1.4.3 (0d15f75042, 2025-12-25)"
   xmlns:inkscape="http://www.inkscape.org/namespaces/inkscape"
   xmlns:sodipodi="http://sodipodi.sourceforge.net/DTD/sodipodi-0.dtd"
   xmlns="http://www.w3.org/2000/svg"
   xmlns:svg="http://www.w3.org/2000/svg"><defs
   id="defs4" /><sodipodi:namedview
   id="namedview4"
   pagecolor="#ffffff"
   bordercolor="#000000"
   borderopacity="0.25"
   inkscape:showpageshadow="2"
   inkscape:pageopacity="0.0"
   inkscape:pagecheckerboard="0"
   inkscape:deskcolor="#d1d1d1"
   inkscape:zoom="11.873501"
   inkscape:cx="9.4748799"
   inkscape:cy="-4.7163847"
   inkscape:window-width="1920"
   inkscape:window-height="1008"
   inkscape:window-x="0"
   inkscape:window-y="0"
   inkscape:window-maximized="1"
   inkscape:current-layer="Descongelado" />
<g
   id="g1"
   transform="translate(0,-2)">
    <path
   fill="#e74c3c"
   d="M 16,11 H 8 c -2.2,0 -4,1.8 -4,4 v 7 c 0,2.2 1.8,4 4,4 h 8 c 2.2,0 4,-1.8 4,-4 v -7 c 0,-2.2 -1.8,-4 -4,-4 z"
   id="path1" />
</g>
<g
   id="g2"
   style="fill:#008080"
   transform="translate(0.10051833,-2.2634543)">
    <path
   fill="#FFFFFF"
   d="M 9.7425915,2.1836499 C 7.0379992,2.9083432 5.4823645,5.6027824 6.2070579,8.3073743 l 0.5176382,1.9318517 c 0.1552914,0.579556 0.6394685,0.83921 1.2247441,0.707107 C 8.9815875,10.713365 8.4649243,8.984269 8.3977294,8.7556627 L 8.1389097,7.7897366 C 7.6989171,6.1476626 8.6181558,4.5554943 10.260231,4.1155022 11.902304,3.6755094 13.494473,4.5947487 13.934464,6.236822 14.089756,6.8163775 14.579654,7.0992201 15.15921,6.943929 15.738765,6.7886376 16.021608,6.2987395 15.866316,5.7191841 15.141623,3.0145917 12.447184,1.4589566 9.7425915,2.1836499 Z"
   id="path2"
   style="fill:#008080"
   sodipodi:nodetypes="sssscssssss" />
</g>

<g
   id="g4"
   transform="translate(0,-2)">
    <circle
   fill="#ffffff"
   cx="12"
   cy="17"
   r="2"
   id="circle3" />
    <path
   fill="#ffffff"
   d="m 12,20 c -0.6,0 -1,-0.4 -1,-1 v -2 c 0,-0.6 0.4,-1 1,-1 0.6,0 1,0.4 1,1 v 2 c 0,0.6 -0.4,1 -1,1 z"
   id="path4" />
</g>
</svg>
